<svg preserveAspectRatio="none" width="100%" height="100%" overflow="visible" style="display: block;" viewBox="0 0 20 20" fill="none" xmlns="http://www.w3.org/2000/svg">
<g id="Group">
<path id="Vector" d="M7 16V3.00001L19 1.00001V14" stroke="var(--stroke-0, #FBFBFC)" stroke-width="2" stroke-linecap="round" stroke-linejoin="round"/>
<path id="Vector_2" d="M4 19C5.65685 19 7 17.6569 7 16C7 14.3432 5.65685 13 4 13C2.34315 13 1 14.3432 1 16C1 17.6569 2.34315 19 4 19Z" stroke="var(--stroke-0, #FBFBFC)" stroke-width="2" stroke-linecap="round" stroke-linejoin="round"/>
<path id="Vector_3" d="M16 17C17.6569 17 19 15.6569 19 14C19 12.3432 17.6569 11 16 11C14.3431 11 13 12.3432 13 14C13 15.6569 14.3431 17 16 17Z" stroke="var(--stroke-0, #FBFBFC)" stroke-width="2" stroke-linecap="round" stroke-linejoin="round"/>
</g>
</svg>
