<svg preserveAspectRatio="none" width="100%" height="100%" overflow="visible" style="display: block;" viewBox="0 0 28 28" fill="none" xmlns="http://www.w3.org/2000/svg">
<g id="Settings rail icon">
<path id="Vector" d="M12.6 3H15.4L16.4 6.1C17.1 6.3 17.8 6.6 18.4 6.9L21.3 5.4L23.3 7.4L21.8 10.3C22.1 10.9 22.4 11.6 22.6 12.3L26 13.3V16.1L22.7 17.1C22.5 17.8 22.2 18.5 21.9 19.1L23.4 22L21.4 24L18.5 22.5C17.9 22.8 17.2 23.1 16.5 23.3L15.5 26H12.7L11.7 23.3C11 23.1 10.3 22.8 9.7 22.5L6.8 24L4.8 22L6.3 19.1C6 18.5 5.7 17.8 5.5 17.1L2 16.1V13.3L5.4 12.3C5.6 11.6 5.9 10.9 6.2 10.3L4.7 7.4L6.7 5.4L9.6 6.9C10.2 6.6 10.9 6.3 11.6 6.1L12.6 3Z" stroke="var(--stroke-0, #111111)" stroke-width="2" stroke-linejoin="round"/>
<path id="Vector_2" d="M14 18.7C16.2091 18.7 18 16.9091 18 14.7C18 12.4909 16.2091 10.7 14 10.7C11.7909 10.7 10 12.4909 10 14.7C10 16.9091 11.7909 18.7 14 18.7Z" stroke="var(--stroke-0, #111111)" stroke-width="2"/>
</g>
</svg>
