<svg preserveAspectRatio="none" width="100%" height="100%" overflow="visible" style="display: block;" viewBox="0 0 28 28" fill="none" xmlns="http://www.w3.org/2000/svg">
<g id="Fan rail icon">
<path id="Vector" d="M14 16.8C15.5464 16.8 16.8 15.5464 16.8 14C16.8 12.4536 15.5464 11.2 14 11.2C12.4536 11.2 11.2 12.4536 11.2 14C11.2 15.5464 12.4536 16.8 14 16.8Z" stroke="var(--stroke-0, #111111)" stroke-width="2"/>
<path id="Vector_2" d="M14 11C13 6 15 3 18.2 4.4C21.8 6 19.6 11.2 14 14M14 14C12.4 20.7 15.8 25.2 19.2 23.1C22.2 21.2 21.2 17.9 16.6 15.5M14 14C9.5 8.7 3.8 9.2 3.8 13.2C3.8 16.8 6.8 17.9 11.4 15.5" stroke="var(--stroke-0, #111111)" stroke-width="2" stroke-linecap="round" stroke-linejoin="round"/>
</g>
</svg>
